<svg id="visual" viewBox="0 0 1000 88" width="1000" height="88" version="1.1" xmlns="http://www.w3.org/2000/svg">
    <path d="m 1000,9.167464 -9.3,8.3 c -9.4,8.4 -28,25 -46.5,29.4 -18.5,4.3 -36.9,-3.7 -55.4,-13.9 -18.5,-10.1 -37.1,-22.5 -55.6,-28.6 -18.5,-6.2 -36.9,-6.2 -55.4,2.6 -18.5,8.9 -37.1,26.5 -55.6,26 -18.5,-0.5 -36.9,-19.1 -55.4,-21.8 -18.5,-2.7 -37.1,10.7 -55.6,12.7 -18.5,2 -36.9,-7.4 -55.4,-11 -18.5,-3.7 -37.1,-1.7 -55.8,0.8 -18.7,2.5 -37.3,5.5 -55.8,15.2 -18.5,9.6 -36.9,26 -55.4,27 -18.5,1 -37.1,-13.4 -55.6,-23.9 -18.5,-10.5 -36.9,-17.1 -55.4,-13.8 -18.5,3.3 -37.1,16.7 -55.6,23 -18.5,6.3 -36.9,5.7 -55.4,1.2 -18.5,-4.5 -37.1,-12.9 -55.6,-8.7 -18.5,4.2 -36.9,20.8 -55.4,25.5 -18.5,4.7 -37.1,-2.7 -46.5,-6.3 l -9.3,-3.7 v 37.999998 h 9.3 c 9.4,0 28,0 46.5,0 18.5,0 36.9,0 55.4,0 18.5,0 37.1,0 55.6,0 18.5,0 36.9,0 55.4,0 18.5,0 37.1,0 55.6,0 18.5,0 36.9,0 55.4,0 18.5,0 37.1,0 55.6,0 18.5,0 36.9,0 55.4,0 18.5,0 37.1,0 55.8,0 18.7,0 37.3,0 55.8,0 18.5,0 36.9,0 55.4,0 18.5,0 37.1,0 55.6,0 18.5,0 36.9,0 55.4,0 18.5,0 37.1,0 55.6,0 18.5,0 36.9,0 55.4,0 18.5,0 37.1,0 55.6,0 18.5,0 36.9,0 55.4,0 18.5,0 37.1,0 46.5,0 h 9.3 z"
          stroke-linecap="round" stroke-linejoin="miter" id="path2"/>
</svg>
